<svg width="100" height="100" viewBox="0 0 100 100" fill="none" xmlns="http://www.w3.org/2000/svg">
<g clip-path="url(#clip0_161_1662)">
<path d="M57.2989 52.6486H53.4818L52.5646 55.4375H50.5264L54.3577 44.5581H56.424L60.2569 55.4375H58.2163L57.2989 52.6486ZM55.3825 46.4437C55.3825 46.4437 55.1367 47.5169 54.9235 48.1285L53.9589 51.0385H56.8073L55.8413 48.1285C55.6416 47.5142 55.4133 46.4437 55.4133 46.4437H55.3825Z" fill="white"/>
<path d="M63.183 44.5603H66.6914C67.8707 44.5603 68.4073 44.6512 68.8804 44.8683C69.9697 45.3559 70.6585 46.4005 70.6585 47.8402C70.6585 49.1427 69.9692 50.351 68.8198 50.8151V50.8459C68.8198 50.8459 68.9726 50.9978 69.1885 51.3826L71.4257 55.4419H69.2202L67.0594 51.3819H65.1577V55.4407H63.1821V44.5591H63.1833V44.5603H63.183ZM66.9356 49.6623C67.9923 49.6623 68.6506 49.0343 68.6506 47.9464C68.6506 46.905 68.2074 46.2616 66.6597 46.2616H65.1573V49.6638L66.9356 49.6623Z" fill="white"/>
<path d="M74.7979 44.5605H78.5067C81.862 44.5605 84.0516 46.5522 84.0516 49.983C84.0516 53.4184 81.8625 55.4373 78.5067 55.4373H74.7979V44.5605ZM78.3994 53.7376C80.6061 53.7376 82.0134 52.4359 82.0134 49.9831C82.0134 47.5646 80.5717 46.2609 78.3994 46.2609H76.7741V53.7376H78.3994Z" fill="white"/>
<path d="M87.5945 52.6487C87.5945 52.6487 88.7742 53.7981 90.306 53.7981C91.1332 53.7981 91.8851 53.3707 91.8851 52.482C91.8851 50.5333 86.7512 50.8701 86.7512 47.5318C86.7512 45.7222 88.3136 44.3755 90.3973 44.3755C92.5434 44.3755 93.6457 45.54 93.6457 45.54L92.7869 47.1499C92.7869 47.1499 91.7423 46.2005 90.379 46.2005C89.4626 46.2005 88.7398 46.737 88.7398 47.503C88.7398 49.4348 93.8562 48.9586 93.8562 52.4385C93.8562 54.1695 92.5397 55.6246 90.2713 55.6246C87.851 55.6246 86.5186 54.1402 86.5186 54.1402L87.5945 52.6487Z" fill="white"/>
<path d="M34.9998 44.5603L33.2065 52.0861C33.0693 52.6984 33.0236 53.2337 33.0236 53.2337H32.9921C32.976 53.2337 32.9606 52.7129 32.7927 52.0861L30.8624 44.5603H29.1467L27.186 52.0861C27.0167 52.7114 27.0024 53.2337 26.9867 53.2337H26.9562C26.9562 53.2337 26.9081 52.6975 26.773 52.0861L25.4889 46.4508L24.5239 50.5587L25.745 55.4375H28.0281L29.6984 49.0035C29.8822 48.2983 29.975 47.5787 29.975 47.5787H30.0039C30.0039 47.5787 30.0957 48.2985 30.2808 49.0035L31.9531 55.4375H34.2344L37.0407 44.5581L34.9998 44.5603Z" fill="white"/>
<path d="M47.2745 44.5605L45.4805 52.0864C45.3437 52.6986 45.2976 53.2339 45.2976 53.2339H45.2654C45.2516 53.2339 45.2368 52.7132 45.0683 52.0864L43.1361 44.5605H41.4219L39.4608 52.0864C39.2909 52.7116 39.2774 53.2339 39.2616 53.2339H39.2301C39.2301 53.2339 39.1842 52.6978 39.0469 52.0864L37.755 46.425L36.79 50.5332L38.0206 55.4388H40.3026L41.9722 49.0044C42.1557 48.2992 42.2494 47.5798 42.2494 47.5798H42.2799C42.2799 47.5798 42.3718 48.2992 42.5558 49.0044L44.2271 55.4388H46.5094L49.3153 44.5605H47.2745Z" fill="white"/>
<path d="M6.77372 52.6488H2.9578L2.0387 55.4378H0L3.831 44.5605H5.90035L9.73084 55.4378H7.69231L6.77372 52.6488ZM4.85814 46.444C4.85814 46.444 4.6119 47.5172 4.39851 48.1287L3.43301 51.0387H6.2831L5.31608 48.1299C5.11793 47.5163 4.8871 46.444 4.8871 46.444H4.85814Z" fill="white"/>
<path d="M20.5188 52.0846C20.687 52.7116 20.7015 53.2328 20.7166 53.2328H20.7476C20.7476 53.2328 20.7947 52.6953 20.9312 52.0846L22.724 44.5581H24.7623L21.9571 55.4375H19.6751L18.0056 49.0027C17.8223 48.298 17.7283 47.5782 17.7283 47.5782H17.6978C17.6978 47.5782 17.6071 48.298 17.422 49.0027L15.7513 55.437H13.4682L10.7412 44.5603H12.7794L14.4962 52.0861C14.6344 52.6984 14.6801 53.2337 14.6801 53.2337H14.7109C14.7273 53.2337 14.7399 52.7129 14.9102 52.0861L16.8716 44.5603H18.5849L20.5188 52.0846Z" fill="white"/>
<path d="M98.1297 48.0977C99.1713 48.0977 100 48.9397 100 49.9992C100 51.0658 99.1713 51.9021 98.1297 51.9021C97.1075 51.9021 96.2817 51.066 96.2817 49.9992C96.2817 48.9404 97.1075 48.0977 98.1297 48.0977ZM98.1297 51.68C99.0538 51.68 99.7635 50.9503 99.7635 50.0005C99.7635 49.055 99.0529 48.3209 98.1297 48.3209C97.2218 48.3209 96.5168 49.0571 96.5168 50.0005C96.5166 50.9515 97.2225 51.68 98.1297 51.68ZM97.5223 48.9507H98.2188C98.5746 48.9507 98.8294 49.1936 98.8294 49.5611C98.8294 49.8706 98.642 50.0695 98.4244 50.1228V50.1326C98.4244 50.1326 98.4436 50.1594 98.4944 50.249L98.9091 51.0524H98.6512L98.2056 50.1751H97.7524V51.0524H97.525L97.5223 48.9507ZM98.1943 49.9736C98.4363 49.9736 98.5929 49.8181 98.5929 49.5602C98.5929 49.3082 98.4361 49.1587 98.1943 49.1587H97.7528V49.9733L98.1943 49.9736Z" fill="#D7D7D7"/>
</g>
<defs>
<clipPath id="clip0_161_1662">
<rect width="100" height="100" fill="white"/>
</clipPath>
</defs>
</svg>
