<svg width="24" height="24" viewBox="0 0 24 24" fill="none" xmlns="http://www.w3.org/2000/svg">
<path fill-rule="evenodd" clip-rule="evenodd" d="M16.7989 10C19.1212 10 21 11.7999 21 14C21 16.2001 19.1001 18 16.7778 18C14.4555 18 12.5556 16.2001 12.5556 14C12.5556 9.58 16.3344 6 21 6C21 6 18.2345 6.97993 16.7989 10ZM10.4444 14C10.4444 16.2001 8.54452 18 6.22222 18C3.89992 18 2 16.2001 2 14C2 9.58 5.77889 6 10.4444 6C10.4444 6 7.67893 6.98004 6.24333 10C8.56563 10 10.4444 11.7999 10.4444 14Z" fill="black"/>
</svg>
