<svg width="100" height="30" viewBox="0 0 100 30" fill="none" xmlns="http://www.w3.org/2000/svg">
<path d="M85.2461 4.58203C85.6289 4.58203 85.9863 4.66406 86.2871 4.85547C86.9727 5.21094 87.4102 5.95117 87.4102 6.77344V12.9395H93.3848C94.5898 12.9395 95.5488 13.8984 95.5488 15.1035C95.5488 16.3086 94.5898 17.2676 93.3848 17.2676H87.4102V23.1328C87.4102 24.3379 86.4512 25.2969 85.2461 25.2969C85 25.2969 68.6113 25.2969 68.6113 25.2969C67.4062 25.2969 66.4473 24.3379 66.4473 23.1328V14.9941C66.502 13.8438 67.4609 12.9121 68.6113 12.9121H83.0801V8.91016H66.3906L58.4707 23.627C58.334 24.2852 57.9219 24.8594 57.293 25.1621C56.9922 25.2988 56.6621 25.3809 56.3613 25.3809C55.6211 25.3809 54.8809 24.998 54.498 24.3125C54.416 24.2031 54.3613 24.0664 54.3066 23.9297L48.0586 11.6523L41.7285 23.6563C41.4551 24.2871 41.043 24.8613 40.4121 25.1914C40.1113 25.3281 39.7812 25.4102 39.4805 25.4102C38.7402 25.4102 38 25.0273 37.6172 24.3418C37.5352 24.2324 37.4805 24.0957 37.4258 23.959L29.7793 8.96875H17.0078V12.9707H27.3398C28.5449 12.9707 29.5039 13.9297 29.5039 15.1348C29.5039 16.3398 28.5449 17.2988 27.3398 17.2988H17.0078V23.2734C17.0078 24.4785 16.0488 25.4375 14.8438 25.4375C13.6387 25.4375 12.6797 24.4785 12.6797 23.2734V17.2988H6.5957C5.39063 17.2988 4.43164 16.3398 4.43164 15.1348C4.43164 13.9297 5.39063 12.9707 6.5957 12.9707H12.5703V6.80469C12.5703 5.98242 13.0371 5.26953 13.6934 4.88672C13.9941 4.72266 14.3516 4.61328 14.7344 4.61328H30.9297C31.2852 4.61328 31.6152 4.69531 31.916 4.85938C32.3828 5.05078 32.7656 5.40821 32.9844 5.90039L39.3965 18.4785L45.8086 6.47461C46.1367 5.81641 46.3027 5.21485 47.0137 4.88477C47.3145 4.74805 47.6445 4.66602 47.9453 4.66602C48.4941 4.66602 49.0137 4.85742 49.3984 5.24219C49.7812 5.54297 49.9746 5.76367 50.248 6.2832L56.3047 18.4785L63.1016 5.87305C63.2656 5.57227 63.5117 5.32422 63.8145 5.13281C64.1973 4.83203 64.6641 4.63867 65.2129 4.63867H85.2461M70.6953 20.9434H83.082V17.2715H70.6953V20.9434ZM85.2461 0.142578H65.2129C63.7598 0.142578 62.3359 0.63672 61.1836 1.51367C60.3887 2.0625 59.7305 2.80078 59.2656 3.62305L59.2383 3.67774L59.2109 3.73242L56.4434 8.88477C56.4434 8.88477 53.2363 2.58203 52.2773 1.81446C51.0723 0.77344 49.5371 0.197268 47.9473 0.197268C46.9609 0.197268 45.9746 0.416017 45.0703 0.855471C43.3438 1.67774 42.3848 3.21289 41.5898 4.99414L39.5078 8.88477L36.959 3.89648C36.3008 2.55273 35.1777 1.45703 33.8066 0.828127C32.9023 0.388674 31.916 0.169925 30.9297 0.169925H14.7344C13.6387 0.169925 12.543 0.443361 11.582 0.964845C9.44531 2.11524 8.12891 4.36328 8.12891 6.77539V8.50195H6.59375C2.94922 8.50195 -0.0117188 11.4609 -0.0117188 15.1074C-0.0117188 18.7539 2.94727 21.7129 6.59375 21.7129H8.12891V23.2481C8.12891 26.8926 11.0879 29.8535 14.7344 29.8535C18.3809 29.8535 21.3398 26.8945 21.3398 23.2481V21.7129H27.2051C28.4648 21.7129 29.6719 21.3574 30.6855 20.7266L33.2891 25.8242C33.4258 26.125 33.5625 26.4004 33.7285 26.6738C34.9336 28.6465 37.0723 29.8535 39.373 29.8535C40.3594 29.8535 41.3457 29.6348 42.25 29.1953C43.8672 28.4277 45.2637 27.1133 45.9766 25.4414L47.8672 21.248L50.2246 25.8516C50.3613 26.1523 50.4981 26.4277 50.6621 26.7012C51.8672 28.6738 54.0059 29.8809 56.3066 29.8809C57.293 29.8809 58.2793 29.6621 59.1836 29.2227C60.6914 28.4824 61.8691 27.1953 62.4727 25.6602C63.459 28.0723 65.8438 29.7715 68.6113 29.7715H85.2461C88.8906 29.7715 91.8516 26.9219 91.8516 23.2773V21.7422H93.3867C97.0312 21.7422 99.9922 18.7832 99.9922 15.1367C99.9922 11.4922 97.0332 8.53125 93.3867 8.53125H91.8516V6.80469C91.8516 4.36523 90.5371 2.14648 88.3984 0.994141C87.4395 0.416016 86.3418 0.142578 85.2461 0.142578Z" fill="white"/>
</svg>
