<svg width="1451" height="356" viewBox="0 0 1451 356" fill="none" xmlns="http://www.w3.org/2000/svg">
<path d="M4.32134e-07 2.99998L102 353H154L233.5 75.5L313.5 353H365.5L468 2.99998H423L340.5 297L257.5 2.99998H213.5L127.5 297L45.5 2.99998H4.32134e-07ZM794.969 269.5C808.969 242.5 816.469 212 816.469 178C816.469 144 808.969 113.5 794.969 86.5C780.969 59.5 760.969 38.5 735.969 23C710.469 7.99997 681.469 -1.50204e-05 649.469 -1.50204e-05C616.969 -1.50204e-05 587.969 7.99997 562.969 23C537.469 38.5 517.469 59.5 503.469 86.5C489.469 113.5 482.469 144 482.469 178C482.469 212 489.469 242.5 503.469 269.5C517.469 296.5 537.469 318 562.969 333C587.969 348.5 616.969 356 649.469 356C681.469 356 710.469 348.5 735.969 333C760.969 318 780.969 296.5 794.969 269.5ZM542.469 249.5C531.969 228.5 526.969 205 526.969 178C526.969 151.5 531.969 128 542.469 107C552.469 86 566.969 70 585.469 58C603.969 46 625.469 40 649.469 40C673.469 40 694.469 46 712.969 58C731.469 70 745.969 86 756.469 107C766.469 128 771.969 151.5 771.969 178C771.969 205 766.469 228.5 756.469 249.5C745.969 270.5 731.469 286.5 712.969 298.5C694.469 310.5 673.469 316 649.469 316C625.469 316 603.969 310.5 585.469 298.5C566.969 286.5 552.469 270.5 542.469 249.5ZM1000.45 2.99998H866.445V353H909.945V218.5H999.445L1071.95 353H1120.95L1042.45 210C1064.95 204 1082.95 192 1096.45 174C1109.95 156 1116.95 135 1116.95 110.5C1116.95 89 1111.95 70 1102.45 54C1092.45 38 1078.95 25.5 1061.45 16.5C1043.45 7.49998 1023.45 2.99998 1000.45 2.99998ZM909.945 178.5V43H997.445C1019.95 43 1037.95 49.5 1051.95 61.5C1065.45 74 1072.45 90.5 1072.45 110.5C1072.45 131.5 1065.45 148 1051.95 160C1037.95 172.5 1019.95 178.5 996.945 178.5H909.945ZM1167.11 2.99998V353H1210.61V262L1280.11 183.5L1398.11 353H1450.11L1312.11 150.5L1440.11 2.99998H1387.11L1210.61 201.5V2.99998H1167.11Z" fill="black"/>
</svg>
